<!DOCTYPE svg PUBLIC "-//W3C//DTD SVG 1.1//EN" "http://www.w3.org/Graphics/SVG/1.1/DTD/svg11.dtd">
<!-- Uploaded to: SVG Repo, www.svgrepo.com, Transformed by: SVG Repo Mixer Tools -->
<svg height="800px" width="800px" version="1.1" id="Layer_1" xmlns="http://www.w3.org/2000/svg" xmlns:xlink="http://www.w3.org/1999/xlink" viewBox="-51.2 -51.2 614.40 614.40" xml:space="preserve" fill="#101214" stroke="#101214" stroke-width="0.00512">
<g id="SVGRepo_bgCarrier" stroke-width="0"/>
<g id="SVGRepo_tracerCarrier" stroke-linecap="round" stroke-linejoin="round" stroke="#CCCCCC" stroke-width="10.24"> <g> <path style="fill:#3E3D43;" d="M70.598,504.455c-22.879,0-41.495-18.615-41.495-41.496V309.895h151.983v153.064 c0,22.88-18.615,41.496-41.495,41.496H70.598z"/> <path style="fill:#3E3D43;" d="M222.042,504.455c-22.88,0-41.495-18.615-41.495-41.496V309.895h151.983v153.064 c0,22.88-18.615,41.496-41.495,41.496H222.042z"/> <path style="fill:#3E3D43;" d="M372.947,504.455c-22.88,0-41.495-18.615-41.495-41.496V309.895h151.983v153.064 c0,22.88-18.615,41.496-41.495,41.496H372.947z"/> </g> <path style="fill:#1E293B;" d="M456.977,342.771v120.219c0,22.479-17.972,40.828-40.299,41.466h25.264 c22.88,0,41.495-18.615,41.495-41.496V342.771H456.977z"/> <path style="fill:#1E293B;" d="M29.103,342.771V49.041c0-22.88,18.615-41.496,41.495-41.496h68.994 c22.879,0,41.495,18.615,41.495,41.496v293.73H29.103z"/> <path style="fill:#1E293B;" d="M180.547,342.771V49.041c0-22.88,18.615-41.496,41.495-41.496h68.994 c22.879,0,41.495,18.615,41.495,41.496v293.73H180.547z"/> <path style="fill:#1E293B;" d="M331.453,342.771V49.041c0-22.88,18.615-41.496,41.495-41.496h68.994 c22.879,0,41.495,18.615,41.495,41.496v293.73H331.453z"/> <path style="fill:#1E293B;" d="M441.941,7.545h-26.454c22.88,0,41.495,18.615,41.495,41.496v293.73h26.454V49.041 C483.436,26.161,464.821,7.545,441.941,7.545z"/> <path style="fill:#1E293B;" d="M306.077,342.771l-0.041,119.74c0,22.48-17.972,40.828-40.299,41.466H291 c22.88,0,41.495-18.615,41.495-41.496l0.036-119.71H306.077z"/> <path style="fill:#1E293B;" d="M291.036,7.545h-26.454c22.88,0,41.495,18.615,41.495,41.496v293.73h26.454V49.041 C332.531,26.161,313.915,7.545,291.036,7.545z"/> <g> <path style="fill:#1E293B;" d="M128.427,61.44H81.763c-11.206,0-20.323,9.117-20.323,20.322v197.572 c0,11.205,9.117,20.322,20.323,20.322h46.665c11.206,0,20.323-9.117,20.323-20.322V81.762 C148.749,70.557,139.633,61.44,128.427,61.44z"/> <path style="fill:#1E293B;" d="M278.793,61.44h-46.665c-11.206,0-20.323,9.117-20.323,20.322v197.572 c0,11.206,9.117,20.322,20.323,20.322h46.665c11.206,0,20.323-9.117,20.323-20.322V81.762 C299.116,70.557,289.999,61.44,278.793,61.44z"/> <path style="fill:#1E293B;" d="M429.698,61.44h-46.665c-11.206,0-20.323,9.117-20.323,20.322v197.572 c0,11.206,9.117,20.322,20.323,20.322h46.665c11.206,0,20.323-9.117,20.323-20.322V81.762 C450.021,70.557,440.904,61.44,429.698,61.44z"/> <path style="fill:#1E293B;" d="M105.095,450.56c-18.127,0-32.876-14.748-32.876-32.876c0-18.128,14.749-32.876,32.876-32.876 s32.876,14.748,32.876,32.876C137.971,435.812,123.222,450.56,105.095,450.56z"/> <path style="fill:#1E293B;" d="M256.539,450.56c-18.127,0-32.876-14.748-32.876-32.876c0-18.128,14.749-32.876,32.876-32.876 s32.876,14.748,32.876,32.876C289.415,435.812,274.666,450.56,256.539,450.56z"/> <path style="fill:#1E293B;" d="M406.366,450.56c-18.127,0-32.876-14.748-32.876-32.876c0-18.128,14.749-32.876,32.876-32.876 c18.127,0,32.876,14.748,32.876,32.876C439.242,435.812,424.493,450.56,406.366,450.56z"/> </g> <g> <path style="fill:#1E293B;" d="M61.44,105.634V81.762c0-11.205,9.117-20.322,20.323-20.322h46.665 c11.205,0,20.322,9.117,20.322,20.322v23.872H61.44z"/> <path style="fill:#1E293B;" d="M211.806,105.634V81.762c0-11.205,9.117-20.322,20.323-20.322h46.665 c11.206,0,20.323,9.117,20.323,20.322v23.872H211.806z"/> <path style="fill:#1E293B;" d="M362.712,105.634V81.762c0-11.205,9.117-20.322,20.323-20.322h46.665 c11.206,0,20.323,9.117,20.323,20.322v23.872H362.712z"/> </g> <path style="fill:#1E293B;" d="M156.27,342.771l-0.041,119.74c0,22.48-17.972,40.828-40.299,41.466h25.264 c22.88,0,41.495-18.615,41.495-41.496l0.036-119.71H156.27z"/> <path style="fill:#1E293B;" d="M141.229,7.545h-26.454c22.88,0,41.495,18.615,41.495,41.496v293.73h26.454V49.041 C182.724,26.161,164.109,7.545,141.229,7.545z"/> <path d="M256,458.105c22.289,0,40.421-18.132,40.421-40.421c0-22.289-18.132-40.421-40.421-40.421s-40.421,18.132-40.421,40.421 C215.579,439.973,233.711,458.105,256,458.105z M256,393.432c13.372,0,24.253,10.879,24.253,24.253 c0,13.373-10.88,24.253-24.253,24.253s-24.253-10.879-24.253-24.253C231.747,404.311,242.628,393.432,256,393.432z"/> <path d="M406.905,377.263c-22.289,0-40.421,18.132-40.421,40.421c0,22.289,18.132,40.421,40.421,40.421s40.421-18.132,40.421-40.421 C447.326,395.395,429.194,377.263,406.905,377.263z M406.905,441.937c-13.372,0-24.253-10.879-24.253-24.253 c0-13.373,10.88-24.253,24.253-24.253s24.253,10.879,24.253,24.253C431.158,431.058,420.278,441.937,406.905,441.937z"/> <path d="M279.332,53.895h-46.665c-15.365,0-27.867,12.501-27.867,27.867v197.572c0,15.365,12.501,27.867,27.868,27.867h46.665 c15.365,0,27.867-12.501,27.867-27.867V81.762C307.2,66.396,294.699,53.895,279.332,53.895z M291.032,279.333 c0,6.45-5.248,11.698-11.699,11.698h-46.665c-6.45,0-11.699-5.248-11.699-11.698V113.179h70.063v166.154H291.032z M291.032,97.011 h-70.063V81.762c0-6.45,5.248-11.698,11.699-11.698h46.665c6.45,0,11.698,5.248,11.698,11.698V97.011z"/> <path d="M430.237,53.895h-46.665c-15.365,0-27.867,12.501-27.867,27.867v197.572c0,15.365,12.501,27.867,27.868,27.867h46.665 c15.365,0,27.867-12.501,27.867-27.867V81.762C458.105,66.396,445.604,53.895,430.237,53.895z M441.937,279.333 c0,6.45-5.248,11.698-11.699,11.698h-46.665c-6.45,0-11.699-5.248-11.699-11.698V113.179h70.063v166.154H441.937z M441.937,97.011 h-70.063V81.762c0-6.45,5.248-11.698,11.699-11.698h46.665c6.45,0,11.698,5.248,11.698,11.698V97.011z"/> <path d="M128.427,53.895H81.763c-15.366,0-27.868,12.501-27.868,27.867v197.572c0,15.365,12.501,27.867,27.868,27.867h46.665 c15.365,0,27.867-12.501,27.867-27.867V81.762C156.295,66.396,143.793,53.895,128.427,53.895z M140.126,279.333 c0,6.45-5.248,11.698-11.699,11.698H81.763c-6.451,0-11.699-5.248-11.699-11.698V113.179h70.063V279.333z M140.126,97.011H70.063 V81.762c0-6.45,5.248-11.698,11.699-11.698h46.665c6.45,0,11.698,5.248,11.698,11.698V97.011z"/> <path d="M441.402,0h-68.994c-17.101,0-32.176,8.804-40.956,22.112C322.673,8.804,307.598,0,290.497,0h-68.994 c-17.101,0-32.176,8.804-40.956,22.112C171.768,8.804,156.692,0,139.592,0H70.598c-27.041,0-49.04,22-49.04,49.041V462.96 c0,27.04,21.999,49.04,49.04,49.04h68.994c17.101,0,32.176-8.804,40.956-22.112C189.327,503.196,204.402,512,221.503,512h68.994 c17.101,0,32.176-8.804,40.956-22.112C340.232,503.196,355.308,512,372.408,512h68.994c27.041,0,49.04-22,49.04-49.041V49.041 C490.442,22,468.443,0,441.402,0z M172.463,462.959c0,18.126-14.747,32.873-32.871,32.873H70.598 c-18.125,0-32.871-14.747-32.871-32.873V350.316h134.737V462.959z M172.463,334.147H37.726V49.041 c0-18.126,14.747-32.873,32.871-32.873h68.994c18.125,0,32.871,14.747,32.871,32.873V334.147z M323.368,462.959 c0,18.126-14.747,32.873-32.871,32.873h-68.994c-18.125,0-32.871-14.747-32.871-32.873V350.316h134.737V462.959z M323.368,334.147 H188.632V49.041c0-18.126,14.747-32.873,32.871-32.873h68.994c18.125,0,32.871,14.747,32.871,32.873V334.147z M474.274,334.147 h-22.161c-4.465,0-8.084,3.62-8.084,8.084s3.62,8.084,8.084,8.084h22.161v112.643c0,18.155-14.718,32.873-32.873,32.873h-68.993 c-18.154,0-32.871-14.718-32.871-32.871V350.316h76.93c4.465,0,8.084-3.62,8.084-8.084s-3.62-8.084-8.084-8.084h-76.93V49.041 c0-18.155,14.718-32.873,32.873-32.873h68.993c18.154,0,32.871,14.718,32.871,32.871V334.147z"/> <path d="M105.095,458.105c22.289,0,40.421-18.132,40.421-40.421c0-22.289-18.132-40.421-40.421-40.421s-40.421,18.132-40.421,40.421 C64.674,439.973,82.806,458.105,105.095,458.105z M105.095,393.432c13.372,0,24.253,10.879,24.253,24.253 c0,13.373-10.88,24.253-24.253,24.253s-24.253-10.879-24.253-24.253C80.842,404.311,91.722,393.432,105.095,393.432z"/> </g>
<g id="SVGRepo_iconCarrier"> <g> <path style="fill:#3E3D43;" d="M70.598,504.455c-22.879,0-41.495-18.615-41.495-41.496V309.895h151.983v153.064 c0,22.88-18.615,41.496-41.495,41.496H70.598z"/> <path style="fill:#3E3D43;" d="M222.042,504.455c-22.88,0-41.495-18.615-41.495-41.496V309.895h151.983v153.064 c0,22.88-18.615,41.496-41.495,41.496H222.042z"/> <path style="fill:#3E3D43;" d="M372.947,504.455c-22.88,0-41.495-18.615-41.495-41.496V309.895h151.983v153.064 c0,22.88-18.615,41.496-41.495,41.496H372.947z"/> </g> <path style="fill:#1E293B;" d="M456.977,342.771v120.219c0,22.479-17.972,40.828-40.299,41.466h25.264 c22.88,0,41.495-18.615,41.495-41.496V342.771H456.977z"/> <path style="fill:#1E293B;" d="M29.103,342.771V49.041c0-22.88,18.615-41.496,41.495-41.496h68.994 c22.879,0,41.495,18.615,41.495,41.496v293.73H29.103z"/> <path style="fill:#1E293B;" d="M180.547,342.771V49.041c0-22.88,18.615-41.496,41.495-41.496h68.994 c22.879,0,41.495,18.615,41.495,41.496v293.73H180.547z"/> <path style="fill:#1E293B;" d="M331.453,342.771V49.041c0-22.88,18.615-41.496,41.495-41.496h68.994 c22.879,0,41.495,18.615,41.495,41.496v293.73H331.453z"/> <path style="fill:#1E293B;" d="M441.941,7.545h-26.454c22.88,0,41.495,18.615,41.495,41.496v293.73h26.454V49.041 C483.436,26.161,464.821,7.545,441.941,7.545z"/> <path style="fill:#1E293B;" d="M306.077,342.771l-0.041,119.74c0,22.48-17.972,40.828-40.299,41.466H291 c22.88,0,41.495-18.615,41.495-41.496l0.036-119.71H306.077z"/> <path style="fill:#1E293B;" d="M291.036,7.545h-26.454c22.88,0,41.495,18.615,41.495,41.496v293.73h26.454V49.041 C332.531,26.161,313.915,7.545,291.036,7.545z"/> <g> <path style="fill:#1E293B;" d="M128.427,61.44H81.763c-11.206,0-20.323,9.117-20.323,20.322v197.572 c0,11.205,9.117,20.322,20.323,20.322h46.665c11.206,0,20.323-9.117,20.323-20.322V81.762 C148.749,70.557,139.633,61.44,128.427,61.44z"/> <path style="fill:#1E293B;" d="M278.793,61.44h-46.665c-11.206,0-20.323,9.117-20.323,20.322v197.572 c0,11.206,9.117,20.322,20.323,20.322h46.665c11.206,0,20.323-9.117,20.323-20.322V81.762 C299.116,70.557,289.999,61.44,278.793,61.44z"/> <path style="fill:#1E293B;" d="M429.698,61.44h-46.665c-11.206,0-20.323,9.117-20.323,20.322v197.572 c0,11.206,9.117,20.322,20.323,20.322h46.665c11.206,0,20.323-9.117,20.323-20.322V81.762 C450.021,70.557,440.904,61.44,429.698,61.44z"/> <path style="fill:#1E293B;" d="M105.095,450.56c-18.127,0-32.876-14.748-32.876-32.876c0-18.128,14.749-32.876,32.876-32.876 s32.876,14.748,32.876,32.876C137.971,435.812,123.222,450.56,105.095,450.56z"/> <path style="fill:#1E293B;" d="M256.539,450.56c-18.127,0-32.876-14.748-32.876-32.876c0-18.128,14.749-32.876,32.876-32.876 s32.876,14.748,32.876,32.876C289.415,435.812,274.666,450.56,256.539,450.56z"/> <path style="fill:#1E293B;" d="M406.366,450.56c-18.127,0-32.876-14.748-32.876-32.876c0-18.128,14.749-32.876,32.876-32.876 c18.127,0,32.876,14.748,32.876,32.876C439.242,435.812,424.493,450.56,406.366,450.56z"/> </g> <g> <path style="fill:#1E293B;" d="M61.44,105.634V81.762c0-11.205,9.117-20.322,20.323-20.322h46.665 c11.205,0,20.322,9.117,20.322,20.322v23.872H61.44z"/> <path style="fill:#1E293B;" d="M211.806,105.634V81.762c0-11.205,9.117-20.322,20.323-20.322h46.665 c11.206,0,20.323,9.117,20.323,20.322v23.872H211.806z"/> <path style="fill:#1E293B;" d="M362.712,105.634V81.762c0-11.205,9.117-20.322,20.323-20.322h46.665 c11.206,0,20.323,9.117,20.323,20.322v23.872H362.712z"/> </g> <path style="fill:#1E293B;" d="M156.27,342.771l-0.041,119.74c0,22.48-17.972,40.828-40.299,41.466h25.264 c22.88,0,41.495-18.615,41.495-41.496l0.036-119.71H156.27z"/> <path style="fill:#1E293B;" d="M141.229,7.545h-26.454c22.88,0,41.495,18.615,41.495,41.496v293.73h26.454V49.041 C182.724,26.161,164.109,7.545,141.229,7.545z"/> <path d="M256,458.105c22.289,0,40.421-18.132,40.421-40.421c0-22.289-18.132-40.421-40.421-40.421s-40.421,18.132-40.421,40.421 C215.579,439.973,233.711,458.105,256,458.105z M256,393.432c13.372,0,24.253,10.879,24.253,24.253 c0,13.373-10.88,24.253-24.253,24.253s-24.253-10.879-24.253-24.253C231.747,404.311,242.628,393.432,256,393.432z"/> <path d="M406.905,377.263c-22.289,0-40.421,18.132-40.421,40.421c0,22.289,18.132,40.421,40.421,40.421s40.421-18.132,40.421-40.421 C447.326,395.395,429.194,377.263,406.905,377.263z M406.905,441.937c-13.372,0-24.253-10.879-24.253-24.253 c0-13.373,10.88-24.253,24.253-24.253s24.253,10.879,24.253,24.253C431.158,431.058,420.278,441.937,406.905,441.937z"/> <path d="M279.332,53.895h-46.665c-15.365,0-27.867,12.501-27.867,27.867v197.572c0,15.365,12.501,27.867,27.868,27.867h46.665 c15.365,0,27.867-12.501,27.867-27.867V81.762C307.2,66.396,294.699,53.895,279.332,53.895z M291.032,279.333 c0,6.45-5.248,11.698-11.699,11.698h-46.665c-6.45,0-11.699-5.248-11.699-11.698V113.179h70.063v166.154H291.032z M291.032,97.011 h-70.063V81.762c0-6.45,5.248-11.698,11.699-11.698h46.665c6.45,0,11.698,5.248,11.698,11.698V97.011z"/> <path d="M430.237,53.895h-46.665c-15.365,0-27.867,12.501-27.867,27.867v197.572c0,15.365,12.501,27.867,27.868,27.867h46.665 c15.365,0,27.867-12.501,27.867-27.867V81.762C458.105,66.396,445.604,53.895,430.237,53.895z M441.937,279.333 c0,6.45-5.248,11.698-11.699,11.698h-46.665c-6.45,0-11.699-5.248-11.699-11.698V113.179h70.063v166.154H441.937z M441.937,97.011 h-70.063V81.762c0-6.45,5.248-11.698,11.699-11.698h46.665c6.45,0,11.698,5.248,11.698,11.698V97.011z"/> <path d="M128.427,53.895H81.763c-15.366,0-27.868,12.501-27.868,27.867v197.572c0,15.365,12.501,27.867,27.868,27.867h46.665 c15.365,0,27.867-12.501,27.867-27.867V81.762C156.295,66.396,143.793,53.895,128.427,53.895z M140.126,279.333 c0,6.45-5.248,11.698-11.699,11.698H81.763c-6.451,0-11.699-5.248-11.699-11.698V113.179h70.063V279.333z M140.126,97.011H70.063 V81.762c0-6.45,5.248-11.698,11.699-11.698h46.665c6.45,0,11.698,5.248,11.698,11.698V97.011z"/> <path d="M441.402,0h-68.994c-17.101,0-32.176,8.804-40.956,22.112C322.673,8.804,307.598,0,290.497,0h-68.994 c-17.101,0-32.176,8.804-40.956,22.112C171.768,8.804,156.692,0,139.592,0H70.598c-27.041,0-49.04,22-49.04,49.041V462.96 c0,27.04,21.999,49.04,49.04,49.04h68.994c17.101,0,32.176-8.804,40.956-22.112C189.327,503.196,204.402,512,221.503,512h68.994 c17.101,0,32.176-8.804,40.956-22.112C340.232,503.196,355.308,512,372.408,512h68.994c27.041,0,49.04-22,49.04-49.041V49.041 C490.442,22,468.443,0,441.402,0z M172.463,462.959c0,18.126-14.747,32.873-32.871,32.873H70.598 c-18.125,0-32.871-14.747-32.871-32.873V350.316h134.737V462.959z M172.463,334.147H37.726V49.041 c0-18.126,14.747-32.873,32.871-32.873h68.994c18.125,0,32.871,14.747,32.871,32.873V334.147z M323.368,462.959 c0,18.126-14.747,32.873-32.871,32.873h-68.994c-18.125,0-32.871-14.747-32.871-32.873V350.316h134.737V462.959z M323.368,334.147 H188.632V49.041c0-18.126,14.747-32.873,32.871-32.873h68.994c18.125,0,32.871,14.747,32.871,32.873V334.147z M474.274,334.147 h-22.161c-4.465,0-8.084,3.62-8.084,8.084s3.62,8.084,8.084,8.084h22.161v112.643c0,18.155-14.718,32.873-32.873,32.873h-68.993 c-18.154,0-32.871-14.718-32.871-32.871V350.316h76.93c4.465,0,8.084-3.62,8.084-8.084s-3.62-8.084-8.084-8.084h-76.93V49.041 c0-18.155,14.718-32.873,32.873-32.873h68.993c18.154,0,32.871,14.718,32.871,32.871V334.147z"/> <path d="M105.095,458.105c22.289,0,40.421-18.132,40.421-40.421c0-22.289-18.132-40.421-40.421-40.421s-40.421,18.132-40.421,40.421 C64.674,439.973,82.806,458.105,105.095,458.105z M105.095,393.432c13.372,0,24.253,10.879,24.253,24.253 c0,13.373-10.88,24.253-24.253,24.253s-24.253-10.879-24.253-24.253C80.842,404.311,91.722,393.432,105.095,393.432z"/> </g>
</svg>