<!DOCTYPE svg PUBLIC "-//W3C//DTD SVG 1.1//EN" "http://www.w3.org/Graphics/SVG/1.1/DTD/svg11.dtd">
<!-- Uploaded to: SVG Repo, www.svgrepo.com, Transformed by: SVG Repo Mixer Tools -->
<svg fill="#1E293B" width="800px" height="800px" viewBox="-2.4 -2.4 28.80 28.80" xmlns="http://www.w3.org/2000/svg">
<g id="SVGRepo_bgCarrier" stroke-width="0">
<path transform="translate(-2.4, -2.4), scale(0.8999999999999999)" d="M16,26.590916890237068C18.35841025565335,27.695006410548444,20.81258915123845,30.772921717084397,23.109180030734723,29.54541084745968C25.415440894336683,28.312731442722857,23.996248960419294,24.501550928348003,24.64746220276148,21.96891218607887C25.068054620878335,20.33318277585341,25.478156971538105,18.73823633242335,26.271405377348287,17.247174411397424C27.57884315668691,14.78959533200245,30.829579239427183,13.16647659778356,30.811291113488537,10.382818209480245C30.79466489546479,7.852120891295495,28.24054054023521,5.980505143555749,26.187662104148952,4.500506672595288C24.22067858398298,3.082433127139745,21.79924984529772,1.7471412798747408,19.410396426002187,2.163477790458918C16.985538651064896,2.586089247706899,16.11371241923908,6.184551184175177,13.701975815070066,6.676549379885705C11.125366794946594,7.202181817010409,8.423927673725455,3.5668105772094063,6.140224754658615,4.870614427098216C4.080387590624534,6.046609606764175,5.480371091035802,9.480730657485704,4.806772130070536,11.754968605616913C4.192778284683247,13.827964830399956,2.6223272611130533,15.511859511295226,2.3530562679262843,17.65703897287098C2.0476350246780166,20.090213710302404,1.153130703070131,23.454671033021828,3.1615616275811878,24.861734165994C5.532691497889205,26.522896311668347,8.826053373461399,23.815539450740612,11.695264825480741,24.20198760986337C13.345618262194595,24.424270302577117,14.491831840816092,25.884868120549644,16,26.590916890237068" fill="#CBD5E1" strokewidth="0"/>
</g>
<g id="SVGRepo_tracerCarrier" stroke-linecap="round" stroke-linejoin="round"/>
<g id="SVGRepo_iconCarrier"> <path fill-rule="evenodd" d="M10,14 C10.5522847,14 11,14.4477153 11,15 L11,21 C11,21.5522847 10.5522847,22 10,22 L3,22 C2.44771525,22 2,21.5522847 2,21 L2,15 C2,14.4477153 2.44771525,14 3,14 L10,14 Z M21,9 C21.5522847,9 22,9.44771525 22,10 L22,21 C22,21.5522847 21.5522847,22 21,22 L14,22 C13.4477153,22 13,21.5522847 13,21 L13,10 C13,9.44771525 13.4477153,9 14,9 L21,9 Z M10,2 C10.5522847,2 11,2.44771525 11,3 L11,11 C11,11.5522847 10.5522847,12 10,12 L3,12 C2.44771525,12 2,11.5522847 2,11 L2,3 C2,2.44771525 2.44771525,2 3,2 L10,2 Z M21,2 C21.5522847,2 22,2.44771525 22,3 L22,6 C22,6.55228475 21.5522847,7 21,7 L14,7 C13.4477153,7 13,6.55228475 13,6 L13,3 C13,2.44771525 13.4477153,2 14,2 L21,2 Z"/> </g>
</svg>