<?xml version="1.0" encoding="iso-8859-1"?>
<!-- Uploaded to: SVG Repo, www.svgrepo.com, Generator: SVG Repo Mixer Tools -->
<svg height="800px" width="800px" version="1.1" id="Layer_1" xmlns="http://www.w3.org/2000/svg" xmlns:xlink="http://www.w3.org/1999/xlink" 
	 viewBox="0 0 512 512" xml:space="preserve">
<path style="fill:#E6E6E6;" d="M403.671,87.929c-80.928-80.928-212.138-80.928-293.066,0s-80.928,212.138,0,293.066
	s212.138,80.928,293.066,0S484.599,168.857,403.671,87.929z M189.201,302.4c-37.521-37.521-37.521-98.354,0-135.876
	s98.354-37.521,135.876,0s37.521,98.354,0,135.876S226.722,339.921,189.201,302.4z"/>
<path style="fill:#CCCCCC;" d="M167.403,380.995c-80.928-80.928-80.928-212.138,0-293.066
	c33.223-33.223,74.921-52.795,118.135-58.741c-62.05-8.537-127.228,11.036-174.933,58.741c-80.928,80.928-80.928,212.138,0,293.066
	c47.705,47.705,112.881,67.277,174.931,58.741C242.323,433.791,200.626,414.217,167.403,380.995z"/>
<path style="fill:#FFFFFF;" d="M403.671,87.929c-43.027-43.026-100.266-63.176-156.605-60.451
	c49.629,2.401,98.559,22.55,136.462,60.451c80.928,80.928,80.928,212.138,0,293.066c-37.902,37.902-86.832,58.051-136.462,60.451
	c56.339,2.724,113.578-17.425,156.605-60.451C484.599,300.067,484.599,168.857,403.671,87.929z"/>
<g>
	<path style="fill:#F24141;" d="M426.085,113.27l-59.316,59.316v0.012l-17.619,17.607c-6.28,6.292-16.482,6.292-22.762,0
		l-24.989-24.989c-6.292-6.292-6.292-16.482,0-22.762l41.305-41.305l35.63-35.63c6.28-6.292,16.47-6.292,22.762,0l24.989,24.989
		C432.375,96.788,432.375,106.99,426.085,113.27z"/>
	<path style="fill:#F24141;" d="M401.093,403.41l24.994-24.993c6.286-6.286,6.286-16.477,0-22.763l-76.937-76.937
		c-6.286-6.286-16.477-6.286-22.763,0l-24.994,24.994c-6.286,6.286-6.286,16.477,0,22.763l76.937,76.937
		C384.616,409.696,394.807,409.696,401.093,403.41z"/>
</g>
<g>
	<path style="fill:#D83535;" d="M366.768,172.586v0.012l-17.619,17.607c-6.28,6.292-16.482,6.292-22.762,0l-24.989-24.989
		c-6.292-6.292-6.292-16.482,0-22.762l41.305-41.305C342.572,101.966,336.292,142.111,366.768,172.586z"/>
	<path style="fill:#D83535;" d="M366.768,296.342v-0.012l-17.619-17.607c-6.28-6.292-16.482-6.292-22.762,0l-24.989,24.989
		c-6.292,6.292-6.292,16.482,0,22.762l41.305,41.305C342.572,366.962,336.292,326.817,366.768,296.342z"/>
</g>
<g>
	<path style="fill:#F24141;" d="M212.886,326.48l-40.44,40.44l-36.495,36.495c-6.292,6.28-16.482,6.28-22.762,0l-25.001-25.001
		c-6.28-6.28-6.28-16.47,0-22.762l76.935-76.935c6.292-6.292,16.482-6.292,22.762,0l25.001,24.989
		C219.166,309.998,219.166,320.188,212.886,326.48z"/>
	<path style="fill:#F24141;" d="M212.886,165.216l-25.001,24.989c-6.28,6.292-16.47,6.292-22.762,0l-27.679-27.679L88.188,113.27
		c-6.28-6.28-6.28-16.482,0-22.762l25.001-24.989c6.28-6.292,16.47-6.292,22.762,0l36.495,36.495l40.44,40.44
		C219.166,148.734,219.166,158.924,212.886,165.216z"/>
</g>
<g>
	<path style="fill:#D83535;" d="M88.188,113.27c-6.28-6.28-6.28-16.482,0-22.762l25.001-24.989c6.28-6.292,16.47-6.292,22.762,0
		l36.495,36.495c-15.38,18.461-27.051,38.959-35.002,60.512L88.188,113.27z"/>
	<path style="fill:#D83535;" d="M137.444,306.396c7.951,21.565,19.622,42.064,35.002,60.524l-36.495,36.495
		c-6.292,6.28-16.482,6.28-22.762,0l-25.001-25.001c-6.28-6.28-6.28-16.47,0-22.762L137.444,306.396z"/>
</g>
<path d="M480.046,161.213c-15.163-23.149-31.326-34.196-37.471-37.828c-1.917-3.189-3.918-6.336-6.009-9.439
	c5.229-9.492,3.844-21.685-4.195-29.723L407.378,59.23c-4.718-4.718-10.992-7.318-17.666-7.318c-4.294,0-8.416,1.09-12.072,3.114
	c-16.994-11.439-35.48-20.373-55.051-26.574c-4.678-1.481-9.673,1.109-11.156,5.788c-1.482,4.678,1.109,9.673,5.787,11.156
	c16.523,5.235,32.203,12.593,46.749,21.912l-68.858,68.859c-0.1,0.1-0.184,0.21-0.281,0.31c-24.318-9.372-51.081-9.371-75.378,0.004
	c-0.098-0.102-0.182-0.212-0.283-0.313l-68.866-68.866c39.635-25.417,86.812-35.817,134.024-29.319
	c4.857,0.671,9.346-2.73,10.015-7.592c0.669-4.862-2.73-9.346-7.592-10.015c-53.058-7.301-106.098,4.997-150.12,34.647
	c-3.654-2.023-7.774-3.11-12.065-3.11c-6.673,0-12.947,2.598-17.666,7.318L81.907,84.223c-4.719,4.718-7.319,10.992-7.319,17.666
	c0,4.292,1.088,8.41,3.11,12.065c-1.895,2.812-3.725,5.657-5.478,8.54l-0.248-0.51c-0.857,0.416-21.212,10.517-40.017,39.231
	C1.397,207.87-1.899,267.866,0.717,309.98c1.024,16.483,7.744,30.135,19.437,39.479c11.752,9.391,28.326,14.35,47.052,14.349
	c2.518,0,5.081-0.11,7.67-0.29c-1.06,7.513,1.264,15.417,7.03,21.182l24.994,24.993c4.718,4.719,10.992,7.318,17.666,7.318
	c4.294,0,8.415-1.089,12.07-3.114c0.297,0.2,0.594,0.403,0.891,0.602c8.759,21.838,39.452,79.178,119.614,79.178
	s110.855-57.34,119.614-79.178c0.297-0.198,0.592-0.401,0.889-0.6c3.654,2.024,7.775,3.113,12.068,3.113
	c6.673,0,12.947-2.598,17.666-7.318l24.994-24.994c5.729-5.73,8.061-13.569,7.05-21.04c1.807,0.089,3.602,0.148,5.373,0.148
	c18.725,0,35.303-4.959,47.053-14.35c11.691-9.344,18.413-22.995,19.436-39.478C513.899,267.866,510.604,207.87,480.046,161.213z
	 M307.677,148.734l76.937-76.937c1.36-1.361,3.172-2.111,5.097-2.111c1.925,0,3.736,0.75,5.097,2.111l24.994,24.994
	c2.811,2.811,2.811,7.384,0,10.196l-76.937,76.937c-1.36,1.361-3.172,2.111-5.097,2.111c-1.925,0-3.736-0.75-5.097-2.111
	l-24.995-24.994c-1.361-1.361-2.111-3.172-2.111-5.097S306.315,150.096,307.677,148.734z M287.839,152.858
	c-0.012,0.326-0.047,0.647-0.047,0.975c0,6.673,2.598,12.947,7.318,17.666l24.994,24.994c4.718,4.718,10.992,7.318,17.666,7.318
	c0.328,0,0.651-0.036,0.976-0.047c7.477,19.832,7.473,41.572-0.012,61.401c-0.322-0.012-0.641-0.047-0.966-0.047
	c-6.673,0-12.947,2.598-17.666,7.318l-24.993,24.994c-4.719,4.718-7.319,10.992-7.319,17.666c0,0.325,0.034,0.642,0.047,0.965
	c-19.834,7.486-41.578,7.489-61.412,0.007c0.259-6.717-2.142-13.52-7.259-18.637l-24.994-24.994
	c-4.718-4.718-10.992-7.318-17.666-7.318c-0.327,0-0.648,0.034-0.973,0.047c-7.48-19.839-7.479-41.579,0.004-61.401
	c0.323,0.012,0.643,0.047,0.969,0.047c6.673,0,12.947-2.598,17.666-7.318l24.994-24.994c5.115-5.116,7.517-11.915,7.259-18.631
	C246.255,145.379,267.999,145.376,287.839,152.858z M89.983,341.292C69.554,309.447,58.8,272.734,58.799,234.459
	c-0.002-38.277,10.751-74.991,31.178-106.835l68.867,68.867c0.101,0.101,0.212,0.186,0.314,0.284
	c-9.375,24.297-9.375,51.059-0.002,75.375c-0.101,0.098-0.211,0.182-0.31,0.282L89.983,341.292z M94.475,96.791l24.994-24.994
	c1.36-1.361,3.172-2.111,5.097-2.111c1.925,0,3.736,0.75,5.097,2.111l76.937,76.936c2.811,2.812,2.811,7.385,0,10.196
	l-24.994,24.994c-1.36,1.361-3.172,2.111-5.097,2.111c-1.925,0-3.736-0.75-5.097-2.111l-76.939-76.936
	c-1.361-1.361-2.111-3.172-2.111-5.097C92.362,99.964,93.111,98.153,94.475,96.791z M31.249,335.575
	c-7.775-6.214-12.079-15.196-12.794-26.697c-2.421-38.972,0.412-94.342,27.647-136.815c2.488-3.881,5.006-7.37,7.486-10.503
	c-8.286,23.154-12.565,47.717-12.563,72.899c0.002,39.718,10.632,77.9,30.881,111.431C55.355,346.715,40.637,343.078,31.249,335.575
	z M124.565,399.238c-1.925,0-3.736-0.75-5.099-2.111l-24.994-24.993c-2.811-2.812-2.811-7.385,0-10.196L171.411,285
	c1.36-1.361,3.172-2.111,5.097-2.111c1.925,0,3.736,0.75,5.097,2.111l24.994,24.994c2.811,2.811,2.811,7.384,0.001,10.195
	l-13.783,13.781c-3.472,3.471-3.472,9.098-0.001,12.568c3.472,3.469,9.099,3.471,12.567,0l13.784-13.783
	c0.1-0.1,0.182-0.209,0.28-0.309c12.15,4.684,24.91,7.035,37.677,7.035c12.77,0,25.54-2.354,37.697-7.043
	c0.1,0.103,0.186,0.216,0.288,0.318l68.864,68.864c-31.844,20.429-68.558,31.183-106.831,31.183
	c-38.276,0-74.989-10.754-106.835-31.184l36.713-36.714c3.471-3.471,3.471-9.098,0-12.568c-3.472-3.471-9.098-3.471-12.568,0
	l-44.789,44.79C128.302,398.488,126.491,399.238,124.565,399.238z M257.142,475.904c-48.558,0-76.037-24.25-90.706-45.191
	c28.195,13.066,58.959,19.864,90.706,19.864s62.51-6.797,90.706-19.864C333.178,451.654,305.7,475.904,257.142,475.904z
	 M419.802,372.132l-24.994,24.994l0,0c-1.36,1.361-3.172,2.112-5.097,2.112s-3.736-0.75-5.097-2.112l-76.939-76.937
	c-1.361-1.361-2.112-3.172-2.112-5.097s0.75-3.736,2.113-5.097L332.67,285c1.36-1.361,3.172-2.111,5.097-2.111
	s3.736,0.75,5.097,2.111l76.937,76.937C422.613,364.748,422.613,369.322,419.802,372.132z M493.545,308.878
	c-0.715,11.501-5.018,20.483-12.793,26.697c-8.963,7.164-22.791,10.796-38.428,10.393c9.132-15.136,16.352-31.324,21.53-48.316
	c1.431-4.695-1.215-9.66-5.909-11.092c-4.69-1.429-9.66,1.215-11.091,5.91c-5.268,17.286-12.845,33.663-22.558,48.823l-68.86-68.86
	c-0.102-0.102-0.213-0.187-0.316-0.287c9.375-24.306,9.378-51.068,0.008-75.375c0.1-0.097,0.21-0.18,0.308-0.28l68.862-68.862
	c25.756,40.149,36.073,87.927,29.086,135.701c-0.711,4.857,2.651,9.369,7.506,10.08c0.437,0.064,0.87,0.095,1.299,0.095
	c4.338,0,8.134-3.181,8.781-7.602c4.92-33.636,1.954-67.275-8.329-98.679c1.088,1.544,2.175,3.153,3.258,4.84
	C493.134,214.536,495.966,269.906,493.545,308.878z"/>
</svg>