<?xml version="1.0" encoding="iso-8859-1"?>
<!-- Uploaded to: SVG Repo, www.svgrepo.com, Generator: SVG Repo Mixer Tools -->
<svg height="800px" width="800px" version="1.1" id="Layer_1" xmlns="http://www.w3.org/2000/svg" xmlns:xlink="http://www.w3.org/1999/xlink" 
	 viewBox="0 0 511.999 511.999" xml:space="preserve">
<polyline style="fill:#F2CA7F;" points="290.459,369.566 502.402,263.215 377.761,15.438 165.924,122.001 290.459,369.566 "/>
<circle style="fill:#898686;" cx="270.795" cy="421.576" r="76.215"/>
<circle style="fill:#BBBBBD;" cx="270.795" cy="421.576" r="35.855"/>
<path d="M347.465,382.376c-10.301-20.478-27.961-35.72-49.724-42.915c-21.767-7.197-45.028-5.487-65.504,4.815
	c-20.479,10.301-35.72,27.96-42.915,49.724c-7.197,21.764-5.486,45.028,4.815,65.506c10.301,20.477,27.961,35.718,49.724,42.914
	c8.856,2.929,17.961,4.381,27.025,4.381c13.211,0,26.336-3.088,38.48-9.197c20.478-10.301,35.718-27.96,42.915-49.724
	C359.476,426.118,357.766,402.854,347.465,382.376L347.465,382.376z M300.739,480.459c-9.578,4.819-19.777,7.101-29.832,7.099
	c-24.395-0.001-47.935-13.437-59.626-36.677c-7.998-15.898-9.325-33.959-3.739-50.855c5.587-16.896,17.418-30.605,33.316-38.603
	c9.428-4.744,19.618-7.14,29.874-7.14c7.037,0,14.104,1.129,20.981,3.401c16.896,5.587,30.606,17.418,38.603,33.316l0,0
	C346.827,423.82,333.558,463.951,300.739,480.459z"/>
<path d="M311.403,400.517c-11.263-22.387-38.64-31.438-61.027-20.177c-22.387,11.262-31.439,38.639-20.179,61.027
	c7.976,15.855,24.033,25.021,40.677,25.021c6.858,0,13.816-1.557,20.349-4.843C313.613,450.283,322.665,422.906,311.403,400.517
	L311.403,400.517z M282.598,444.396c-12.933,6.506-28.747,1.277-35.254-11.656c-6.506-12.933-1.277-28.748,11.655-35.254
	c3.775-1.899,7.794-2.799,11.757-2.799c9.615,0,18.891,5.296,23.498,14.453l0,0C300.761,422.076,295.531,437.891,282.598,444.396z"
	/>
<path d="M223.766,337.025c1.45,0,2.921-0.329,4.305-1.025c4.735-2.381,6.643-8.151,4.261-12.886L106.905,73.771
	C96.273,52.64,70.435,44.096,49.298,54.724L5.287,76.864c-4.735,2.381-6.643,8.151-4.261,12.887c2.38,4.735,8.15,6.641,12.886,4.261
	l44.013-22.14c11.682-5.875,25.96-1.152,31.833,10.525l125.428,249.341C216.87,335.09,220.253,337.025,223.766,337.025z"/>
<path d="M484.001,302.951l-125.29,63.024c-4.735,2.381-6.643,8.151-4.261,12.886c1.685,3.353,5.069,5.286,8.581,5.286
	c1.45,0,2.921-0.329,4.305-1.025l125.29-63.024c4.735-2.381,6.643-8.151,4.261-12.886
	C494.505,302.476,488.735,300.567,484.001,302.951z"/>
<path d="M254.042,317.889c1.685,3.351,5.069,5.286,8.581,5.286c1.45,0,2.921-0.329,4.305-1.025
	c4.735-2.381,6.643-8.151,4.261-12.887L178.81,125.621l194.691-97.937l18.648,37.071c2.38,4.735,8.149,6.641,12.886,4.261
	c4.735-2.381,6.643-8.151,4.261-12.887l-22.96-45.644c-2.381-4.735-8.151-6.644-12.886-4.261L161.611,112.786
	c-2.274,1.144-4,3.144-4.8,5.561c-0.798,2.417-0.605,5.052,0.539,7.326L254.042,317.889z"/>
<path d="M510.975,258.261L425.497,88.34c-2.381-4.735-8.153-6.641-12.886-4.261c-4.735,2.383-6.643,8.151-4.261,12.887
	l81.166,161.348l-148.952,74.928c-4.735,2.381-6.643,8.151-4.261,12.886c1.685,3.353,5.069,5.286,8.581,5.286
	c1.45,0,2.921-0.329,4.305-1.025l157.527-79.241c2.274-1.144,4-3.144,4.8-5.561C512.313,263.17,512.119,260.535,510.975,258.261z"/>
<path d="M371.118,158.218c1.664-5.033-1.067-10.461-6.1-12.126l-55.581-18.377c-2.416-0.8-5.051-0.607-7.326,0.537
	c-2.275,1.144-4,3.144-4.8,5.561l-18.377,55.581c-1.664,5.033,1.067,10.461,6.1,12.126c0.999,0.33,2.015,0.488,3.014,0.488
	c4.027,0,7.778-2.554,9.111-6.586l11.103-33.581l45.062,89.579c1.685,3.351,5.069,5.286,8.581,5.286c1.45,0,2.921-0.33,4.305-1.025
	c4.735-2.381,6.643-8.151,4.261-12.887l-45.062-89.581l33.583,11.105C364.024,165.98,369.454,163.25,371.118,158.218z"/>
</svg>