<!DOCTYPE svg PUBLIC "-//W3C//DTD SVG 1.1//EN" "http://www.w3.org/Graphics/SVG/1.1/DTD/svg11.dtd">
<!-- Uploaded to: SVG Repo, www.svgrepo.com, Transformed by: SVG Repo Mixer Tools -->
<svg fill="#1E293B" width="800px" height="800px" viewBox="-51.2 -51.2 614.40 614.40" enable-background="new 0 0 512 512" id="Customer_x5F_segment" version="1.1" xml:space="preserve" xmlns="http://www.w3.org/2000/svg" xmlns:xlink="http://www.w3.org/1999/xlink" stroke="#1E293B" stroke-width="5.12">
<g id="SVGRepo_bgCarrier" stroke-width="0"/>
<g id="SVGRepo_tracerCarrier" stroke-linecap="round" stroke-linejoin="round" stroke="#CCCCCC" stroke-width="20.48"> <g> <g> <g> <path d="M258.127,272.726H31.354c-0.301,0.857-0.477,1.777-0.477,2.764V486.2c0,5.803,5.678,11.525,11.48,11.525h215.77V272.726z M148.68,323.462c12.428,0,22.502,10.076,22.502,22.502c0,12.43-10.074,22.504-22.502,22.504s-22.502-10.074-22.502-22.504 C126.178,333.538,136.252,323.462,148.68,323.462z M188.869,432.476h-80.807c-1.744,0-2.936-0.842-2.936-2.584v-8.943 c0-24.055,19.816-43.559,43.875-43.559c24.055,0,43.875,19.504,43.875,43.559v8.943 C192.877,431.634,190.611,432.476,188.869,432.476z"/> </g> <g> <path d="M271.627,272.726v225h216.174c5.803,0,11.076-5.723,11.076-11.525V272.726H271.627z M381.908,324.327 c12.428,0,22.504,10.074,22.504,22.502s-10.076,22.502-22.504,22.502s-22.502-10.074-22.502-22.502 S369.48,324.327,381.908,324.327z M424.627,430.755c0,1.742-0.787,3.971-2.529,3.971h-80.807c-1.742,0-2.164-2.229-2.164-3.971 v-8.943c0-24.055,18.691-43.559,42.75-43.559c24.055,0,42.75,19.504,42.75,43.559V430.755z"/> </g> <g> <path d="M271.627,259.226h227.25V43.767c0-5.803-5.273-9.541-11.076-9.541H275.586c-1.393,0-2.727,0.227-3.959,0.633V259.226z M381.908,94.329c12.428,0,22.504,10.074,22.504,22.502s-10.076,22.504-22.504,22.504s-22.502-10.076-22.502-22.504 S369.48,94.329,381.908,94.329z M339.127,191.815c0-24.059,18.691-43.559,42.75-43.559c24.055,0,42.75,19.5,42.75,43.559v8.941 c0,1.744-0.787,2.219-2.529,2.219h-80.807c-1.742,0-2.164-0.475-2.164-2.219V191.815z"/> </g> </g> <g> <path d="M136.648,51.679c0,3.416-2.77,6.188-6.188,6.188c-3.416,0-6.188-2.771-6.188-6.188v-11.67h-85.68v85.059h13.645 c3.418,0,6.188,2.771,6.188,6.188s-2.77,6.188-6.188,6.188H38.594v84.795h85.68v-12.762c0-3.418,2.771-6.188,6.188-6.188 c3.418,0,6.188,2.77,6.188,6.188v12.762h85.682v-84.795h-12.295c-3.416,0-6.188-2.771-6.188-6.188s2.771-6.188,6.188-6.188h12.295 V40.009h-85.682V51.679z M170.869,169.415v8.295c0,1.617-1.313,2.926-2.926,2.926H92.99c-1.617,0-2.928-1.309-2.928-2.926v-8.295 c0-22.314,18.088-40.404,40.404-40.404C152.779,129.011,170.869,147.101,170.869,169.415z M151.535,99.862 c0,11.529-9.346,20.875-20.871,20.875c-11.527,0-20.875-9.346-20.875-20.875c0-11.527,9.348-20.871,20.875-20.871 C142.189,78.991,151.535,88.335,151.535,99.862z"/> </g> <g> <path d="M247.08,236.478V25.767c0-5.807-4.703-10.508-10.508-10.508H24.352c-5.807,0-10.508,4.701-10.508,10.508v210.711 c0,5.805,4.701,10.51,10.508,10.51h212.221C242.377,246.987,247.08,242.282,247.08,236.478z M234.705,223.87 c0,5.932-4.811,10.742-10.744,10.742h-187c-5.932,0-10.742-4.811-10.742-10.742V38.376c0-5.932,4.811-10.742,10.742-10.742h187 c5.934,0,10.744,4.811,10.744,10.742V223.87z"/> </g> </g> </g>
<g id="SVGRepo_iconCarrier"> <g> <g> <g> <path d="M258.127,272.726H31.354c-0.301,0.857-0.477,1.777-0.477,2.764V486.2c0,5.803,5.678,11.525,11.48,11.525h215.77V272.726z M148.68,323.462c12.428,0,22.502,10.076,22.502,22.502c0,12.43-10.074,22.504-22.502,22.504s-22.502-10.074-22.502-22.504 C126.178,333.538,136.252,323.462,148.68,323.462z M188.869,432.476h-80.807c-1.744,0-2.936-0.842-2.936-2.584v-8.943 c0-24.055,19.816-43.559,43.875-43.559c24.055,0,43.875,19.504,43.875,43.559v8.943 C192.877,431.634,190.611,432.476,188.869,432.476z"/> </g> <g> <path d="M271.627,272.726v225h216.174c5.803,0,11.076-5.723,11.076-11.525V272.726H271.627z M381.908,324.327 c12.428,0,22.504,10.074,22.504,22.502s-10.076,22.502-22.504,22.502s-22.502-10.074-22.502-22.502 S369.48,324.327,381.908,324.327z M424.627,430.755c0,1.742-0.787,3.971-2.529,3.971h-80.807c-1.742,0-2.164-2.229-2.164-3.971 v-8.943c0-24.055,18.691-43.559,42.75-43.559c24.055,0,42.75,19.504,42.75,43.559V430.755z"/> </g> <g> <path d="M271.627,259.226h227.25V43.767c0-5.803-5.273-9.541-11.076-9.541H275.586c-1.393,0-2.727,0.227-3.959,0.633V259.226z M381.908,94.329c12.428,0,22.504,10.074,22.504,22.502s-10.076,22.504-22.504,22.504s-22.502-10.076-22.502-22.504 S369.48,94.329,381.908,94.329z M339.127,191.815c0-24.059,18.691-43.559,42.75-43.559c24.055,0,42.75,19.5,42.75,43.559v8.941 c0,1.744-0.787,2.219-2.529,2.219h-80.807c-1.742,0-2.164-0.475-2.164-2.219V191.815z"/> </g> </g> <g> <path d="M136.648,51.679c0,3.416-2.77,6.188-6.188,6.188c-3.416,0-6.188-2.771-6.188-6.188v-11.67h-85.68v85.059h13.645 c3.418,0,6.188,2.771,6.188,6.188s-2.77,6.188-6.188,6.188H38.594v84.795h85.68v-12.762c0-3.418,2.771-6.188,6.188-6.188 c3.418,0,6.188,2.77,6.188,6.188v12.762h85.682v-84.795h-12.295c-3.416,0-6.188-2.771-6.188-6.188s2.771-6.188,6.188-6.188h12.295 V40.009h-85.682V51.679z M170.869,169.415v8.295c0,1.617-1.313,2.926-2.926,2.926H92.99c-1.617,0-2.928-1.309-2.928-2.926v-8.295 c0-22.314,18.088-40.404,40.404-40.404C152.779,129.011,170.869,147.101,170.869,169.415z M151.535,99.862 c0,11.529-9.346,20.875-20.871,20.875c-11.527,0-20.875-9.346-20.875-20.875c0-11.527,9.348-20.871,20.875-20.871 C142.189,78.991,151.535,88.335,151.535,99.862z"/> </g> <g> <path d="M247.08,236.478V25.767c0-5.807-4.703-10.508-10.508-10.508H24.352c-5.807,0-10.508,4.701-10.508,10.508v210.711 c0,5.805,4.701,10.51,10.508,10.51h212.221C242.377,246.987,247.08,242.282,247.08,236.478z M234.705,223.87 c0,5.932-4.811,10.742-10.744,10.742h-187c-5.932,0-10.742-4.811-10.742-10.742V38.376c0-5.932,4.811-10.742,10.742-10.742h187 c5.934,0,10.744,4.811,10.744,10.742V223.87z"/> </g> </g> </g>
</svg>