<!DOCTYPE svg PUBLIC "-//W3C//DTD SVG 1.1//EN" "http://www.w3.org/Graphics/SVG/1.1/DTD/svg11.dtd">
<!-- Uploaded to: SVG Repo, www.svgrepo.com, Transformed by: SVG Repo Mixer Tools -->
<svg width="800px" height="800px" viewBox="0 0 32.00 32.00" xmlns="http://www.w3.org/2000/svg" fill="#000000" stroke="#000000" stroke-width="0.00032">
<g id="SVGRepo_bgCarrier" stroke-width="0"/>
<g id="SVGRepo_tracerCarrier" stroke-linecap="round" stroke-linejoin="round" stroke="#CCCCCC" stroke-width="0.064"/>
<g id="SVGRepo_iconCarrier"> <g fill="none" fill-rule="evenodd"> <path d="m0 0h32v32h-32z"/> <path d="m31 6c.5522847 0 1 .44771525 1 1s-.4477153 1-1 1l-3-.001v18.001c0 3.3137085-2.6862915 6-6 6h-12c-3.3137085 0-6-2.6862915-6-6v-18h-3c-.55228475 0-1-.44771525-1-1s.44771525-1 1-1zm-18 8c-.5522847 0-1 .4477153-1 1v7c0 .5522847.4477153 1 1 1s1-.4477153 1-1v-7c0-.5522847-.4477153-1-1-1zm6 0c-.5522847 0-1 .4477153-1 1v7c0 .5522847.4477153 1 1 1s1-.4477153 1-1v-7c0-.5522847-.4477153-1-1-1zm4.5-13c.8284271 0 1.5.67157288 1.5 1.5s-.6715729 1.5-1.5 1.5h-15c-.82842712 0-1.5-.67157288-1.5-1.5s.67157288-1.5 1.5-1.5z" fill="#1E293B"/> </g> </g>
</svg>