<?xml version="1.0" encoding="utf-8"?>

<!DOCTYPE svg PUBLIC "-//W3C//DTD SVG 1.1//EN" "http://www.w3.org/Graphics/SVG/1.1/DTD/svg11.dtd">
<!-- Uploaded to: SVG Repo, www.svgrepo.com, Generator: SVG Repo Mixer Tools -->
<svg height="800px" width="800px" version="1.1" id="_x32_" xmlns="http://www.w3.org/2000/svg" xmlns:xlink="http://www.w3.org/1999/xlink" 
	 viewBox="0 0 512 512"  xml:space="preserve">
<style type="text/css">
	.st0{fill:#000000;}
</style>
<g>
	<path class="st0" d="M500.792,327.208c-1.466-17.294-5.241-32.05-9.988-44.995c-3.553-9.708-7.63-18.399-11.61-26.47
		c-6-12.126-11.743-22.852-15.834-33.732c-4.091-10.894-6.686-21.885-6.708-35.441c0-2.373,0.082-4.828,0.258-7.371
		c0.45-6.635,1.873-13.66,3.981-20.685c3.154-10.548,7.858-21.067,12.797-30.362c4.939-9.296,10.113-17.382,14.108-23.161
		l6.442-9.31l-90.21-91.066l-9.067,5.124c-18.2,10.283-39.105,16.136-61.455,16.136c-14.05,0-26.419-1.504-37.727-4.733
		c-11.315-3.251-21.649-8.19-31.852-15.472L256.004,0l-7.932,5.669c-10.202,7.282-20.537,12.221-31.852,15.472
		c-11.315,3.228-23.669,4.733-37.726,4.733c-22.35,0-43.255-5.853-61.455-16.136l-9.067-5.124L17.761,95.68l6.442,9.31
		c5.338,7.703,12.745,19.512,18.923,32.818c3.096,6.656,5.882,13.674,7.991,20.706c2.1,7.025,3.524,14.05,3.972,20.685
		c0.178,2.543,0.258,4.998,0.258,7.371c-0.014,12.06-2.079,22.063-5.396,31.808c-2.499,7.298-5.75,14.426-9.414,21.893
		c-5.484,11.182-11.949,23.094-17.522,37.174c-5.573,14.065-10.158,30.311-11.808,49.764c-0.34,3.943-0.502,7.88-0.502,11.772
		c0,34.801,13.188,67.036,35.11,91.294c21.893,24.267,52.698,40.676,87.69,43.735c30.849,2.684,53.472,5.145,70.979,9.553
		c8.772,2.204,16.269,4.858,23.154,8.234c6.877,3.384,13.188,7.504,19.608,12.87l8.749,7.335l8.758-7.335
		c6.42-5.366,12.73-9.486,19.608-12.87c5.167-2.536,10.673-4.658,16.806-6.494c9.192-2.75,19.814-4.836,32.522-6.59
		c12.701-1.762,27.458-3.184,44.804-4.703c34.992-3.052,65.789-19.468,87.696-43.735c21.915-24.258,35.11-56.493,35.103-91.294
		C501.293,335.087,501.131,331.151,500.792,327.208z M338.895,80.658h37.668v8.492h-26.544v17.522H375v8.498h-24.982v20.176h27.326
		v8.5h-38.449V80.658z M288.541,80.658h44.014v8.492h-16.298v54.696h-11.13V89.15h-16.585V80.658z M240.428,80.658h11.131v45.311
		c0,7.666,3.413,11.507,10.247,11.507c6.767,0,10.15-3.841,10.15-11.507V80.658h11.123v44.515c0,13.276-7.091,19.91-21.273,19.91
		c-14.249,0-21.378-6.634-21.378-19.91V80.658z M190.907,87.336c3.671-5.278,9.516-7.924,17.514-7.924
		c8.006,0,13.844,2.646,17.514,7.924c3.678,5.278,5.522,13.586,5.522,24.916c0,11.322-1.844,19.638-5.522,24.915
		c-3.67,5.278-9.508,7.917-17.514,7.917c-7.998,0-13.844-2.639-17.514-7.917c-3.678-5.278-5.514-13.593-5.514-24.915
		C185.393,100.921,187.229,92.614,190.907,87.336z M134.649,80.658h24.591c5.27,0,9.435,1.238,12.495,3.715
		c3.45,2.771,5.167,6.958,5.167,12.56c0,4.195-0.973,7.644-2.926,10.357c-2.079,2.897-4.976,4.607-8.684,5.137v0.178
		c6.959,0.648,10.608,4.953,10.932,12.922c0.059,3.008,0.192,7.283,0.39,12.834c0.125,2.418,1.231,4.246,3.317,5.485h-12.59
		c-0.914-1.003-1.533-2.86-1.858-5.573c-0.059-0.708-0.228-4.696-0.486-11.949c-0.133-3.546-0.929-6.082-2.388-7.614
		c-1.467-1.533-4.047-2.3-7.763-2.3h-9.074v27.436h-11.123V80.658z M236.602,380.554c-6.266,9.384-15.31,16.276-25.756,20.161
		c-6.966,2.602-14.551,3.914-22.453,3.914c-11.912,0-23.08-2.942-32.405-8.742c-9.324-5.772-16.703-14.448-20.949-25.166
		c-2.852-7.135-4.334-15.141-4.334-23.78c0-7.378,1.298-14.536,3.383-21.325c2.094-6.782,4.984-13.232,8.241-19.269l40.602-75.32
		c0.435-0.833,1.017-1.798,1.976-2.824c1.032-1.113,2.565-2.152,4.002-2.683c0.951-0.362,1.828-0.553,2.551-0.656
		c0.98-0.14,1.71-0.148,2.329-0.148h15.959c0.988,0.007,2.093,0.096,3.369,0.472c1.253,0.376,2.727,1.069,4.062,2.308
		c0.884,0.81,1.658,1.85,2.189,2.963c0.722,1.496,0.988,3.052,0.98,4.349c0,1.128-0.177,2.094-0.405,2.92
		c-0.236,0.84-0.531,1.54-0.841,2.167l-0.066,0.132l-26.914,49.934h0.023c11.035-0.008,21.502,3.029,30.244,8.786
		c8.742,5.735,15.701,14.197,19.763,24.561c2.72,6.9,4.164,14.625,4.164,22.926C246.333,359.45,242.882,371.185,236.602,380.554z
		 M371.579,380.554c-6.265,9.384-15.31,16.276-25.755,20.161c-6.966,2.602-14.551,3.914-22.453,3.914
		c-11.912,0-23.08-2.942-32.404-8.742c-9.325-5.772-16.697-14.448-20.95-25.166c-2.846-7.135-4.335-15.141-4.335-23.78
		c0.008-7.378,1.298-14.536,3.392-21.325c2.079-6.774,4.96-13.202,8.218-19.232l40.616-75.358c0.435-0.833,1.024-1.798,1.976-2.824
		c1.032-1.113,2.565-2.152,4.003-2.683c0.951-0.362,1.828-0.553,2.557-0.656c0.974-0.14,1.703-0.148,2.33-0.148h15.952
		c0.988,0.007,2.094,0.096,3.369,0.472c1.26,0.376,2.735,1.069,4.062,2.308c0.885,0.81,1.658,1.85,2.189,2.963
		c0.722,1.496,0.988,3.052,0.98,4.349c0,1.128-0.176,2.094-0.405,2.92c-0.236,0.84-0.523,1.54-0.84,2.167l-0.066,0.132
		l-26.912,49.934h0.029c11.028-0.008,21.502,3.029,30.237,8.786c8.742,5.735,15.701,14.197,19.763,24.561
		c2.72,6.9,4.164,14.625,4.164,22.926C381.302,359.443,377.86,371.185,371.579,380.554z M269.471,306.427l0.051-0.088l-0.022,0.044
		L269.471,306.427z M429.702,177.326c-0.206,2.971-0.302,5.867-0.309,8.705H82.607c-0.007-2.838-0.102-5.734-0.309-8.705
		c-0.251-3.627-0.701-7.224-1.304-10.77h350.022C430.403,170.102,429.953,173.698,429.702,177.326z"/>
	<path class="st0" d="M208.422,137.476c3.84,0,6.671-1.533,8.492-4.607c2.278-3.893,3.414-10.858,3.414-20.883
		c0-9.797-1.135-16.615-3.414-20.448c-1.82-3.008-4.651-4.512-8.492-4.512c-3.833,0-6.634,1.504-8.388,4.512
		c-2.344,3.833-3.516,10.651-3.516,20.448c0,10.025,1.172,16.99,3.516,20.883C201.787,135.943,204.588,137.476,208.422,137.476z"/>
	<path class="st0" d="M196.9,327.547c-2.381-0.959-5.204-1.534-8.506-1.541c-4.961,0.014-8.75,1.268-11.691,3.258
		c-2.926,2.02-5.138,4.835-6.568,8.728c-0.944,2.587-1.496,5.661-1.496,9.185c0,5.292,1.246,9.582,3.206,12.826
		c1.976,3.25,4.622,5.55,8.138,7.018c2.351,0.973,5.13,1.547,8.411,1.555c4.932-0.014,8.75-1.282,11.75-3.324
		c2.986-2.064,5.264-4.954,6.716-8.883c0.965-2.616,1.525-5.691,1.525-9.192c0-5.271-1.26-9.48-3.228-12.686
		C203.158,331.298,200.482,329.013,196.9,327.547z"/>
	<path class="st0" d="M162.852,106.052c1.953-1.828,2.926-4.334,2.926-7.526c0-6.841-3.509-10.261-10.534-10.261h-9.472v20.529
		h8.883C158.164,108.794,160.898,107.888,162.852,106.052z"/>
	<path class="st0" d="M331.884,327.547c-2.388-0.959-5.204-1.534-8.514-1.541c-4.961,0.014-8.75,1.268-11.691,3.258
		c-2.926,2.02-5.138,4.835-6.568,8.728c-0.936,2.587-1.497,5.661-1.497,9.185c0,5.292,1.246,9.582,3.206,12.826
		c1.976,3.25,4.622,5.55,8.138,7.018c2.352,0.973,5.13,1.547,8.41,1.555c4.931-0.014,8.75-1.282,11.75-3.324
		c2.992-2.064,5.263-4.954,6.715-8.883c0.966-2.616,1.526-5.691,1.526-9.192c0-5.271-1.26-9.48-3.229-12.686
		C338.136,331.298,335.46,329.013,331.884,327.547z"/>
</g>
</svg>