<?xml version="1.0" encoding="iso-8859-1"?>
<!-- Uploaded to: SVG Repo, www.svgrepo.com, Generator: SVG Repo Mixer Tools -->
<svg version="1.1" id="Layer_1" xmlns="http://www.w3.org/2000/svg" xmlns:xlink="http://www.w3.org/1999/xlink" 
	 viewBox="0 0 504 504" xml:space="preserve">
<rect x="32" y="53" style="fill:#F4EFEF;" width="440" height="328"/>
<rect x="16" y="25" style="fill:#7D8B95;" width="472" height="28"/>
<rect x="100" y="265" style="fill:#61C2AB;" width="48" height="52"/>
<rect x="164" y="225" style="fill:#E36D60;" width="48" height="92"/>
<rect x="228" y="161" style="fill:#EF934A;" width="48" height="156"/>
<rect x="292" y="213" style="fill:#73BADD;" width="48" height="104"/>
<rect x="356" y="113" style="fill:#F0C960;" width="48" height="204"/>
<path d="M470,387H30c-2.4,0-4-1.6-4-4V57c0-2.4,1.6-4,4-4s4,1.6,4,4v322h432V57c0-2.4,1.6-4,4-4s4,1.6,4,4v326
	C474,385.4,472.4,387,470,387z"/>
<path d="M486,59h-34c-2.4,0-4-1.6-4-4s1.6-4,4-4h30V31H18v20h402c2.4,0,4,1.6,4,4s-1.6,4-4,4H14c-2.4,0-4-1.6-4-4V27
	c0-2.4,1.6-4,4-4h472c2.4,0,4,1.6,4,4v28C490,57.4,488.4,59,486,59z"/>
<path d="M500,31H4c-2.4,0-4-1.6-4-4s1.6-4,4-4h496c2.4,0,4,1.6,4,4S502.4,31,500,31z"/>
<path d="M250,29c-2.4,0-4-1.6-4-4V5c0-2.4,1.6-4,4-4s4,1.6,4,4v20C254,27.4,252.4,29,250,29z"/>
<path d="M250,501c-2.4,0-4-1.6-4-4V385c0-2.4,1.6-4,4-4s4,1.6,4,4v112C254,499.4,252.4,501,250,501z"/>
<path d="M368,503H136c-2.4,0-4-1.6-4-4s1.6-4,4-4h232c2.4,0,4,1.6,4,4S370.4,503,368,503z"/>
<path d="M424,323H80c-2.4,0-4-1.6-4-4s1.6-4,4-4h344c2.4,0,4,1.6,4,4S426.4,323,424,323z"/>
<path d="M146,323H98c-2.4,0-4-1.6-4-4v-52c0-2.4,1.6-4,4-4h48c2.4,0,4,1.6,4,4v52C150,321.4,148.4,323,146,323z M102,315h40v-44h-40
	V315z"/>
<path d="M210,323h-48c-2.4,0-4-1.6-4-4v-92c0-2.4,1.6-4,4-4h48c2.4,0,4,1.6,4,4v92C214,321.4,212.4,323,210,323z M166,315h40v-84
	h-40V315z"/>
<path d="M274,323h-48c-2.4,0-4-1.6-4-4V163c0-2.4,1.6-4,4-4h48c2.4,0,4,1.6,4,4v156C278,321.4,276.4,323,274,323z M230,315h40V167
	h-40V315z"/>
<path d="M338,323h-48c-2.4,0-4-1.6-4-4V215c0-2.4,1.6-4,4-4h48c2.4,0,4,1.6,4,4v104C342,321.4,340.4,323,338,323z M294,315h40v-96
	h-40V315z"/>
<path d="M402,323h-48c-2.4,0-4-1.6-4-4V115c0-2.4,1.6-4,4-4h48c2.4,0,4,1.6,4,4v204C406,321.4,404.4,323,402,323z M358,315h40V119
	h-40V315z"/>
</svg>