<!DOCTYPE svg PUBLIC "-//W3C//DTD SVG 1.1//EN" "http://www.w3.org/Graphics/SVG/1.1/DTD/svg11.dtd">
<!-- Uploaded to: SVG Repo, www.svgrepo.com, Transformed by: SVG Repo Mixer Tools -->
<svg version="1.1" id="Layer_1" xmlns="http://www.w3.org/2000/svg" xmlns:xlink="http://www.w3.org/1999/xlink" viewBox="-48.02 -48.02 576.21 576.21" xml:space="preserve" width="800px" height="800px" fill="#64748B" stroke="#64748B" stroke-width="4.80168">
<g id="SVGRepo_bgCarrier" stroke-width="0"/>
<g id="SVGRepo_tracerCarrier" stroke-linecap="round" stroke-linejoin="round" stroke="#CCCCCC" stroke-width="9.60336"> <circle style="fill:#1E293B;" cx="200.084" cy="319.976" r="8"/> <path style="fill:#1E293B;" d="M296.084,64.168h-32c-2.352,0-4.584-1.128-6.104-2.92c-1.52-1.8-2.176-4.208-1.784-6.536 l2.736-16.464c0.928-5.552-0.632-11.216-4.272-15.504c-7.272-8.592-21.88-8.6-29.16-0.008c-3.64,4.288-5.192,9.936-4.272,15.488 l2.736,16.432c0.384,2.32-0.264,4.784-1.784,6.576c-1.512,1.808-3.744,2.936-6.096,2.936h-32v48h112V64.168z M240.084,47.976 c-4.416,0-8-3.584-8-8s3.584-8,8-8c4.416,0,8,3.584,8,8C248.084,44.4,244.5,47.976,240.084,47.976z"/> <g> <circle style="fill:#1E293B;" cx="304.084" cy="207.976" r="8"/> <circle style="fill:#1E293B;" cx="312.084" cy="359.976" r="8"/> </g> <path style="fill:#1E293B;" d="M168.084,112.168h-72v320h288v-320h-72v7.808c0,4.424-3.584,8.192-8,8.192h-128 c-4.416,0-8-3.768-8-8.192V112.168z M165.74,410.32l-11.312,11.312l-10.344-10.344l-10.344,10.344l-11.312-11.312l10.344-10.344 l-10.344-10.344l11.312-11.312l10.344,10.344l10.344-10.344l11.312,11.312l-10.344,10.344L165.74,410.32z M336.084,151.976h16v16 h-16V151.976z M312.084,383.976c-13.232,0-24-10.768-24-24s10.768-24,24-24s24,10.768,24,24S325.316,383.976,312.084,383.976z M304.084,151.976h16v16h-16V151.976z M328.084,207.976c0,13.232-10.768,24-24,24s-24-10.768-24-24s10.768-24,24-24 S328.084,194.744,328.084,207.976z M272.084,151.976h16v16h-16V151.976z M201.3,219.832l32.344-51.664h-25.56v-16h40 c4.416,0,8,3.392,8,7.808v40.192h-16v-12.296l-20.68,33.08l112.44,59.96c2.432,1.304,4.024,3.768,4.216,6.52 c0.184,2.752-1.056,5.408-3.296,7.024l-144,104l-9.368-12.968l133.6-96.496l-108.68-57.96c-1.96-1.048-3.392-2.808-3.968-4.952 C199.78,223.944,200.124,221.712,201.3,219.832z M224.084,319.976c0,13.232-10.768,24-24,24s-24-10.768-24-24s10.768-24,24-24 S224.084,306.744,224.084,319.976z M178.428,234.32l11.312,11.312l-10.344,10.344l10.344,10.344l-11.312,11.312l-10.344-10.344 l-10.344,10.344l-11.312-11.312l10.344-10.344l-10.344-10.344l11.312-11.312l10.344,10.344L178.428,234.32z M176.084,167.976 c0,13.232-10.768,24-24,24s-24-10.768-24-24s10.768-24,24-24S176.084,154.744,176.084,167.976z"/> <g> <path style="fill:#1E293B;" d="M392.084,80.168h-80v16h80c4.416,0,8,3.392,8,7.808v336c0,4.424-3.584,8.192-8,8.192h-304 c-4.416,0-8-3.768-8-8.192v-336c0-4.416,3.584-7.808,8-7.808h80v-16h-80c-13.232,0-24,10.576-24,23.808v336 c0,13.24,10.768,24.192,24,24.192h304c13.232,0,24-10.952,24-24.192v-336C416.084,90.744,405.316,80.168,392.084,80.168z"/> <circle style="fill:#1E293B;" cx="152.084" cy="167.976" r="8"/> </g> <g> <circle style="fill:#1E293B;" cx="240.084" cy="39.976" r="8"/> <path style="fill:#1E293B;" d="M392.084,64.168h-80v-8.192c0-4.416-3.584-7.808-8-7.808h-30.56l1.184-7.216 c1.696-10.192-1.16-20.616-7.84-28.512C260.188,4.552,250.42,0,240.084,0s-20.104,4.512-26.792,12.4 c-6.68,7.888-9.536,18.352-7.84,28.552l1.192,7.216h-30.56c-4.416,0-8,3.392-8,7.808v8.192h-80c-22.056,0-40,17.76-40,39.808v336 c0,22.056,17.944,40.192,40,40.192h304c22.056,0,40-18.136,40-40.192v-336C432.084,81.928,414.14,64.168,392.084,64.168z M184.084,64.168h32c2.352,0,4.584-1.128,6.104-2.92c1.52-1.8,2.168-4.208,1.784-6.536l-2.736-16.464 c-0.928-5.552,0.632-11.216,4.272-15.504c7.272-8.592,21.88-8.6,29.16-0.008c3.64,4.288,5.192,9.936,4.272,15.488l-2.736,16.432 c-0.384,2.32,0.264,4.784,1.784,6.576c1.512,1.808,3.744,2.936,6.096,2.936h32v48h-112V64.168z M176.084,128.168h128 c4.416,0,8-3.768,8-8.192v-7.808h72v320h-288v-320h72v7.808C168.084,124.4,171.668,128.168,176.084,128.168z M416.084,439.976 c0,13.24-10.768,24.192-24,24.192h-304c-13.232,0-24-10.952-24-24.192v-336c0-13.232,10.768-23.808,24-23.808h80v16h-80 c-4.416,0-8,3.392-8,7.808v336c0,4.424,3.584,8.192,8,8.192h304c4.416,0,8-3.768,8-8.192v-336c0-4.416-3.584-7.808-8-7.808h-80v-16 h80c13.232,0,24,10.576,24,23.808V439.976z"/> <polygon style="fill:#1E293B;" points="154.428,378.32 144.084,388.664 133.74,378.32 122.428,389.632 132.772,399.976 122.428,410.32 133.74,421.632 144.084,411.288 154.428,421.632 165.74,410.32 155.396,399.976 165.74,389.632 "/> <polygon style="fill:#1E293B;" points="157.74,234.32 146.428,245.632 156.772,255.976 146.428,266.32 157.74,277.632 168.084,267.288 178.428,277.632 189.74,266.32 179.396,255.976 189.74,245.632 178.428,234.32 168.084,244.664 "/> <path style="fill:#1E293B;" d="M312.084,335.976c-13.232,0-24,10.768-24,24s10.768,24,24,24s24-10.768,24-24 S325.316,335.976,312.084,335.976z M312.084,367.976c-4.408,0-8-3.584-8-8s3.592-8,8-8s8,3.584,8,8 S316.492,367.976,312.084,367.976z"/> <path style="fill:#1E293B;" d="M280.084,207.976c0,13.232,10.768,24,24,24s24-10.768,24-24s-10.768-24-24-24 S280.084,194.744,280.084,207.976z M304.084,199.976c4.408,0,8,3.584,8,8s-3.592,8-8,8s-8-3.584-8-8 C296.084,203.568,299.676,199.976,304.084,199.976z"/> <path style="fill:#1E293B;" d="M176.084,319.976c0,13.232,10.768,24,24,24s24-10.768,24-24s-10.768-24-24-24 S176.084,306.744,176.084,319.976z M200.084,311.976c4.408,0,8,3.584,8,8s-3.592,8-8,8s-8-3.584-8-8 C192.084,315.568,195.676,311.976,200.084,311.976z"/> <path style="fill:#1E293B;" d="M128.084,167.976c0,13.232,10.768,24,24,24s24-10.768,24-24s-10.768-24-24-24 S128.084,154.744,128.084,167.976z M160.084,167.976c0,4.416-3.592,8-8,8s-8-3.584-8-8s3.592-8,8-8 S160.084,163.568,160.084,167.976z"/> <path style="fill:#1E293B;" d="M204.316,231.04L312.996,289l-133.6,96.496l9.368,12.968l144-104 c2.24-1.616,3.488-4.272,3.296-7.024c-0.184-2.76-1.784-5.216-4.216-6.52l-112.44-59.96l20.68-33.088v12.296h16v-40.192 c0-4.416-3.584-7.808-8-7.808h-40v16h25.56L201.3,219.832c-1.176,1.88-1.52,4.12-0.944,6.256 C200.924,228.24,202.364,229.992,204.316,231.04z"/> <rect x="272.084" y="151.976" style="fill:#1E293B;" width="16" height="16"/> <rect x="304.084" y="151.976" style="fill:#1E293B;" width="16" height="16"/> <rect x="336.084" y="151.976" style="fill:#1E293B;" width="16" height="16"/> </g> </g>
<g id="SVGRepo_iconCarrier"> <circle style="fill:#1E293B;" cx="200.084" cy="319.976" r="8"/> <path style="fill:#1E293B;" d="M296.084,64.168h-32c-2.352,0-4.584-1.128-6.104-2.92c-1.52-1.8-2.176-4.208-1.784-6.536 l2.736-16.464c0.928-5.552-0.632-11.216-4.272-15.504c-7.272-8.592-21.88-8.6-29.16-0.008c-3.64,4.288-5.192,9.936-4.272,15.488 l2.736,16.432c0.384,2.32-0.264,4.784-1.784,6.576c-1.512,1.808-3.744,2.936-6.096,2.936h-32v48h112V64.168z M240.084,47.976 c-4.416,0-8-3.584-8-8s3.584-8,8-8c4.416,0,8,3.584,8,8C248.084,44.4,244.5,47.976,240.084,47.976z"/> <g> <circle style="fill:#1E293B;" cx="304.084" cy="207.976" r="8"/> <circle style="fill:#1E293B;" cx="312.084" cy="359.976" r="8"/> </g> <path style="fill:#1E293B;" d="M168.084,112.168h-72v320h288v-320h-72v7.808c0,4.424-3.584,8.192-8,8.192h-128 c-4.416,0-8-3.768-8-8.192V112.168z M165.74,410.32l-11.312,11.312l-10.344-10.344l-10.344,10.344l-11.312-11.312l10.344-10.344 l-10.344-10.344l11.312-11.312l10.344,10.344l10.344-10.344l11.312,11.312l-10.344,10.344L165.74,410.32z M336.084,151.976h16v16 h-16V151.976z M312.084,383.976c-13.232,0-24-10.768-24-24s10.768-24,24-24s24,10.768,24,24S325.316,383.976,312.084,383.976z M304.084,151.976h16v16h-16V151.976z M328.084,207.976c0,13.232-10.768,24-24,24s-24-10.768-24-24s10.768-24,24-24 S328.084,194.744,328.084,207.976z M272.084,151.976h16v16h-16V151.976z M201.3,219.832l32.344-51.664h-25.56v-16h40 c4.416,0,8,3.392,8,7.808v40.192h-16v-12.296l-20.68,33.08l112.44,59.96c2.432,1.304,4.024,3.768,4.216,6.52 c0.184,2.752-1.056,5.408-3.296,7.024l-144,104l-9.368-12.968l133.6-96.496l-108.68-57.96c-1.96-1.048-3.392-2.808-3.968-4.952 C199.78,223.944,200.124,221.712,201.3,219.832z M224.084,319.976c0,13.232-10.768,24-24,24s-24-10.768-24-24s10.768-24,24-24 S224.084,306.744,224.084,319.976z M178.428,234.32l11.312,11.312l-10.344,10.344l10.344,10.344l-11.312,11.312l-10.344-10.344 l-10.344,10.344l-11.312-11.312l10.344-10.344l-10.344-10.344l11.312-11.312l10.344,10.344L178.428,234.32z M176.084,167.976 c0,13.232-10.768,24-24,24s-24-10.768-24-24s10.768-24,24-24S176.084,154.744,176.084,167.976z"/> <g> <path style="fill:#1E293B;" d="M392.084,80.168h-80v16h80c4.416,0,8,3.392,8,7.808v336c0,4.424-3.584,8.192-8,8.192h-304 c-4.416,0-8-3.768-8-8.192v-336c0-4.416,3.584-7.808,8-7.808h80v-16h-80c-13.232,0-24,10.576-24,23.808v336 c0,13.24,10.768,24.192,24,24.192h304c13.232,0,24-10.952,24-24.192v-336C416.084,90.744,405.316,80.168,392.084,80.168z"/> <circle style="fill:#1E293B;" cx="152.084" cy="167.976" r="8"/> </g> <g> <circle style="fill:#1E293B;" cx="240.084" cy="39.976" r="8"/> <path style="fill:#1E293B;" d="M392.084,64.168h-80v-8.192c0-4.416-3.584-7.808-8-7.808h-30.56l1.184-7.216 c1.696-10.192-1.16-20.616-7.84-28.512C260.188,4.552,250.42,0,240.084,0s-20.104,4.512-26.792,12.4 c-6.68,7.888-9.536,18.352-7.84,28.552l1.192,7.216h-30.56c-4.416,0-8,3.392-8,7.808v8.192h-80c-22.056,0-40,17.76-40,39.808v336 c0,22.056,17.944,40.192,40,40.192h304c22.056,0,40-18.136,40-40.192v-336C432.084,81.928,414.14,64.168,392.084,64.168z M184.084,64.168h32c2.352,0,4.584-1.128,6.104-2.92c1.52-1.8,2.168-4.208,1.784-6.536l-2.736-16.464 c-0.928-5.552,0.632-11.216,4.272-15.504c7.272-8.592,21.88-8.6,29.16-0.008c3.64,4.288,5.192,9.936,4.272,15.488l-2.736,16.432 c-0.384,2.32,0.264,4.784,1.784,6.576c1.512,1.808,3.744,2.936,6.096,2.936h32v48h-112V64.168z M176.084,128.168h128 c4.416,0,8-3.768,8-8.192v-7.808h72v320h-288v-320h72v7.808C168.084,124.4,171.668,128.168,176.084,128.168z M416.084,439.976 c0,13.24-10.768,24.192-24,24.192h-304c-13.232,0-24-10.952-24-24.192v-336c0-13.232,10.768-23.808,24-23.808h80v16h-80 c-4.416,0-8,3.392-8,7.808v336c0,4.424,3.584,8.192,8,8.192h304c4.416,0,8-3.768,8-8.192v-336c0-4.416-3.584-7.808-8-7.808h-80v-16 h80c13.232,0,24,10.576,24,23.808V439.976z"/> <polygon style="fill:#1E293B;" points="154.428,378.32 144.084,388.664 133.74,378.32 122.428,389.632 132.772,399.976 122.428,410.32 133.74,421.632 144.084,411.288 154.428,421.632 165.74,410.32 155.396,399.976 165.74,389.632 "/> <polygon style="fill:#1E293B;" points="157.74,234.32 146.428,245.632 156.772,255.976 146.428,266.32 157.74,277.632 168.084,267.288 178.428,277.632 189.74,266.32 179.396,255.976 189.74,245.632 178.428,234.32 168.084,244.664 "/> <path style="fill:#1E293B;" d="M312.084,335.976c-13.232,0-24,10.768-24,24s10.768,24,24,24s24-10.768,24-24 S325.316,335.976,312.084,335.976z M312.084,367.976c-4.408,0-8-3.584-8-8s3.592-8,8-8s8,3.584,8,8 S316.492,367.976,312.084,367.976z"/> <path style="fill:#1E293B;" d="M280.084,207.976c0,13.232,10.768,24,24,24s24-10.768,24-24s-10.768-24-24-24 S280.084,194.744,280.084,207.976z M304.084,199.976c4.408,0,8,3.584,8,8s-3.592,8-8,8s-8-3.584-8-8 C296.084,203.568,299.676,199.976,304.084,199.976z"/> <path style="fill:#1E293B;" d="M176.084,319.976c0,13.232,10.768,24,24,24s24-10.768,24-24s-10.768-24-24-24 S176.084,306.744,176.084,319.976z M200.084,311.976c4.408,0,8,3.584,8,8s-3.592,8-8,8s-8-3.584-8-8 C192.084,315.568,195.676,311.976,200.084,311.976z"/> <path style="fill:#1E293B;" d="M128.084,167.976c0,13.232,10.768,24,24,24s24-10.768,24-24s-10.768-24-24-24 S128.084,154.744,128.084,167.976z M160.084,167.976c0,4.416-3.592,8-8,8s-8-3.584-8-8s3.592-8,8-8 S160.084,163.568,160.084,167.976z"/> <path style="fill:#1E293B;" d="M204.316,231.04L312.996,289l-133.6,96.496l9.368,12.968l144-104 c2.24-1.616,3.488-4.272,3.296-7.024c-0.184-2.76-1.784-5.216-4.216-6.52l-112.44-59.96l20.68-33.088v12.296h16v-40.192 c0-4.416-3.584-7.808-8-7.808h-40v16h25.56L201.3,219.832c-1.176,1.88-1.52,4.12-0.944,6.256 C200.924,228.24,202.364,229.992,204.316,231.04z"/> <rect x="272.084" y="151.976" style="fill:#1E293B;" width="16" height="16"/> <rect x="304.084" y="151.976" style="fill:#1E293B;" width="16" height="16"/> <rect x="336.084" y="151.976" style="fill:#1E293B;" width="16" height="16"/> </g> </g>
</svg>