<!DOCTYPE svg PUBLIC "-//W3C//DTD SVG 1.1//EN" "http://www.w3.org/Graphics/SVG/1.1/DTD/svg11.dtd">
<!-- Uploaded to: SVG Repo, www.svgrepo.com, Transformed by: SVG Repo Mixer Tools -->
<svg fill="#1E293B" width="800px" height="800px" viewBox="-2.4 -2.4 28.80 28.80" xmlns="http://www.w3.org/2000/svg" stroke="#1E293B" stroke-width="0.00024000000000000003">
<g id="SVGRepo_bgCarrier" stroke-width="0"/>
<g id="SVGRepo_tracerCarrier" stroke-linecap="round" stroke-linejoin="round" stroke="#CCCCCC" stroke-width="0.9600000000000002">
<path d="M14.844 20H6.5C5.121 20 4 18.879 4 17.5S5.121 15 6.5 15h7c1.93 0 3.5-1.57 3.5-3.5S15.43 8 13.5 8H8.639a9.812 9.812 0 0 1-1.354 2H13.5c.827 0 1.5.673 1.5 1.5s-.673 1.5-1.5 1.5h-7C4.019 13 2 15.019 2 17.5S4.019 22 6.5 22h9.593a10.415 10.415 0 0 1-1.249-2zM5 2C3.346 2 2 3.346 2 5c0 3.188 3 5 3 5s3-1.813 3-5c0-1.654-1.346-3-3-3zm0 4.5a1.5 1.5 0 1 1 .001-3.001A1.5 1.5 0 0 1 5 6.5z"/>
<path d="M19 14c-1.654 0-3 1.346-3 3 0 3.188 3 5 3 5s3-1.813 3-5c0-1.654-1.346-3-3-3zm0 4.5a1.5 1.5 0 1 1 .001-3.001A1.5 1.5 0 0 1 19 18.5z"/>
</g>
<g id="SVGRepo_iconCarrier">
<path d="M14.844 20H6.5C5.121 20 4 18.879 4 17.5S5.121 15 6.5 15h7c1.93 0 3.5-1.57 3.5-3.5S15.43 8 13.5 8H8.639a9.812 9.812 0 0 1-1.354 2H13.5c.827 0 1.5.673 1.5 1.5s-.673 1.5-1.5 1.5h-7C4.019 13 2 15.019 2 17.5S4.019 22 6.5 22h9.593a10.415 10.415 0 0 1-1.249-2zM5 2C3.346 2 2 3.346 2 5c0 3.188 3 5 3 5s3-1.813 3-5c0-1.654-1.346-3-3-3zm0 4.5a1.5 1.5 0 1 1 .001-3.001A1.5 1.5 0 0 1 5 6.5z"/>
<path d="M19 14c-1.654 0-3 1.346-3 3 0 3.188 3 5 3 5s3-1.813 3-5c0-1.654-1.346-3-3-3zm0 4.5a1.5 1.5 0 1 1 .001-3.001A1.5 1.5 0 0 1 19 18.5z"/>
</g>
</svg>